# xmcd
#
# Track frame offsets: 
#        150
#        22691
#        38353
#        56799
#        76527
#        93380
#        111658
#        136650
#        150616
#        173083
#        183587
#
# Disc length: 2746 seconds
#
# Revision: 0
# Processed by: cddbd v1.5.2PL0 Copyright (c) Steve Scherf et al.
# Submitted via: ExactAudioCopy v1.3
#
DISCID=790ab80b
DTITLE=Sven Zetterberg and The Chicago Express - Permanently Blue
DYEAR=1995
DGENRE=Blues, Soul
TTITLE0=I Think You Need A Shrink
TTITLE1=Fortune Teller
TTITLE2=What Can A Man Do?
TTITLE3=The Soul Of A Man
TTITLE4=Permanently Blue
TTITLE5=Barroom Furniture
TTITLE6=All For Business
TTITLE7=Cha Cha Cha In Blues (cut My Toenail)
TTITLE8=The Flipside Of Blues
TTITLE9=Rockin' Man
TTITLE10=Sweet Woman's Love
EXTD=
EXTT0=
EXTT1=
EXTT2=
EXTT3=
EXTT4=
EXTT5=
EXTT6=
EXTT7=
EXTT8=
EXTT9=
EXTT10=
PLAYORDER=
